<svg width="16" height="16" viewBox="0 0 16 16" fill="none" xmlns="http://www.w3.org/2000/svg">
<path fill-rule="evenodd" clip-rule="evenodd" d="M11.1464 2.64645C11.1944 2.59851 11.2496 2.56234 11.3086 2.53794L11.8535 2.64642L11.854 2.64691L14.3534 5.14598C14.5487 5.34123 14.5487 5.65781 14.3535 5.85309C14.1582 6.04837 13.8417 6.04839 13.6464 5.85314L12 4.20698V9C12 9.27614 11.7761 9.5 11.5 9.5C11.2238 9.5 11 9.27614 11 9V4.20711L9.35352 5.85355C9.15826 6.04882 8.84168 6.04882 8.64642 5.85355C8.45115 5.65829 8.45115 5.34171 8.64642 5.14645L11.1464 2.64645ZM11.3086 2.53794L11.8514 2.64432C11.7611 2.55509 11.637 2.5 11.5 2.5C11.4322 2.5 11.3675 2.51349 11.3086 2.53794ZM2.99997 7.5C2.72383 7.5 2.49997 7.72386 2.49997 8C2.49997 8.27614 2.72383 8.5 2.99997 8.5H7.49991C7.77605 8.5 7.99991 8.27614 7.99991 8C7.99991 7.72386 7.77605 7.5 7.49991 7.5H2.99997ZM2.49997 4C2.49997 3.72386 2.72383 3.5 2.99997 3.5H6.49991C6.77605 3.5 6.99991 3.72386 6.99991 4C6.99991 4.27614 6.77605 4.5 6.49991 4.5H2.99997C2.72383 4.5 2.49997 4.27614 2.49997 4ZM2.99997 11.5C2.72383 11.5 2.49997 11.7239 2.49997 12C2.49997 12.2761 2.72383 12.5 2.99997 12.5H11.4999C11.7761 12.5 11.9999 12.2761 11.9999 12C11.9999 11.7239 11.7761 11.5 11.4999 11.5H2.99997Z" fill="#A7A7A7"/>
</svg>
